# xmcd
#
# Track frame offsets:
#	183
#	14175
#	30400
#	60310
#	74258
#	92970
#	112630
#	147838
#	160503
#	173020
#	188163
#	200810
#	217523
#	232670
#	248623
#	267588
#	291208
#	315073
#	330720
#
# Disc length: 4602 seconds
#
# Revision: 1
# Processed by: cddbd v1.4PL0 Copyright (c) Steve Scherf et al.
# Submitted via: audiograbber 1.81.03
#
DISCID=f711f813
DTITLE=Al Green - Al Green Is Love and Full Of Fire
DYEAR=1900
DGENRE=
TTITLE0=LOVE (Love)
TTITLE1=Rhymes 
TTITLE2=The Love Sermon
TTITLE3=There Is Love
TTITLE4=Could I Be The One
TTITLE5=Love Ritual
TTITLE6=I Didn't Know
TTITLE7=Oh Me Oh My (Dreams In My Arms)
TTITLE8=I Gotta Be More (Take Me Higher)
TTITLE9=I Wish You Were Here
TTITLE10=Glory Glory
TTITLE11=That's The Way It Is
TTITLE12=Always
TTITLE13=There's No Way
TTITLE14=I'd Fly Away
TTITLE15=Full Of Fire
TTITLE16=Together Again
TTITLE17=Soon As I Get Home
TTITLE18=Let It Shine
EXTD=
EXTT0=
EXTT1=
EXTT2=
EXTT3=
EXTT4=
EXTT5=
EXTT6=
EXTT7=
EXTT8=
EXTT9=
EXTT10=
EXTT11=
EXTT12=
EXTT13=
EXTT14=
EXTT15=
EXTT16=
EXTT17=
EXTT18=
PLAYORDER=
